<svg xmlns="http://www.w3.org/2000/svg" xmlns:xlink="http://www.w3.org/1999/xlink" viewBox="0 0 66 65" fill="#fff" fill-rule="evenodd" stroke="#000" stroke-linecap="round" stroke-linejoin="round"><use xlink:href="#A" x=".5" y=".5"/><symbol id="A" overflow="visible"><g stroke="none" fill-rule="nonzero"><path d="M64 32c0 17.674-14.326 32-32 32S0 49.674 0 32 14.328 0 32 0s32 14.328 32 32" fill="#1a1918"/><path d="M32.54 19.548l8.28 20.438-12.508-9.853zm14.7 25.147L34.512 14.04c-.364-.884-1.1-1.352-1.973-1.352s-1.664.468-2.028 1.352L16.52 47.664h4.783l5.534-13.863 16.515 13.343c.664.537 1.144.78 1.767.78 1.248 0 2.338-.936 2.338-2.286 0-.22-.078-.57-.218-.944z"/></g></symbol></svg>